# xmcd CD database file
#
# Track frame offsets:
#	150
#	22077
#	42425
#
# Disc length: 854 seconds
#
# Revision: 1
# Processed by: cddbd v1.5PL3 Copyright (c) Steve Scherf et al.
# Submitted via: CDex 1.50beta9
#
DISCID=21035403
DTITLE=F.O.H - I Believe
DYEAR=2003
DGENRE=R&B
TTITLE0=I Believe
TTITLE1=Love Song(Acoustic Ver.)
TTITLE2=I Believe(Instrumental)
EXTD=YEAR: 2003
EXTT0=
EXTT1=
EXTT2=
PLAYORDER=
